# xmcd
#
# Track frame offsets:
#	150
#	10503
#	21922
#	36538
#	45227
#	53812
#	65413
#	81044
#	90330
#	101073
#	113116
#	125549
#	137020
#	146801
#	157180
#	168443
#	179706
#	189903
#
# Disc length: 2713 seconds
#
# Revision: 1
# Processed by: cddbd v1.5.1PL2 Copyright (c) Steve Scherf et al.
# Submitted via: audiograbber 1.83.01
#
DISCID=f20a9712
DTITLE=Various Artist - Country Legends
DYEAR=2005
DGENRE=Country
TTITLE0=Johnny Cash - I Heard That Lonesome Whistle
TTITLE1=Willie Nelson - Is Something On Your Mind
TTITLE2=Glen Campbell - Rhinestone Cowboy
TTITLE3=Billie Jo Spears - You're My Man
TTITLE4=Waylon Jennings - Love's Gonna Live Here Again
TTITLE5=Patsy Cline - Let the Teardrops Fall
TTITLE6=Glen Campbell - I'm So Lonesome I Could Cry
TTITLE7=George Jones - I Love You Because
TTITLE8=Waylon Jennings - Dream Baby
TTITLE9=Johnny Cash - I Walk the Line
TTITLE10=Lynn Anderson - Stand By Your Man
TTITLE11=Patsy Cline - Walking After Midnight
TTITLE12=Jimmy Dean - Freight Train Blues
TTITLE13=Roger Miller - King of the Road
TTITLE14=Patsy Cline - Just Out of Reach
TTITLE15=Diana Trask - Heartbreak Hotel
TTITLE16=Johnny Cash - Train of Love
TTITLE17=Willie Nelson - Home is Where You're Happy
EXTD=A varied compilation of country stars and their works.
EXTT0=
EXTT1=
EXTT2=
EXTT3=
EXTT4=
EXTT5=
EXTT6=
EXTT7=
EXTT8=
EXTT9=
EXTT10=
EXTT11=
EXTT12=
EXTT13=
EXTT14=
EXTT15=
EXTT16=
EXTT17=
PLAYORDER=
